<?xml version="1.0" encoding="utf-8"?>
<!-- Generator: Adobe Illustrator 18.0.0, SVG Export Plug-In . SVG Version: 6.00 Build 0)  -->
<!DOCTYPE svg PUBLIC "-//W3C//DTD SVG 1.1//EN" "http://www.w3.org/Graphics/SVG/1.1/DTD/svg11.dtd">
<svg version="1.1" id="Capa_1" xmlns="http://www.w3.org/2000/svg" xmlns:xlink="http://www.w3.org/1999/xlink" x="0px" y="0px"
	 viewBox="0 0 454.3 480" enable-background="new 0 0 454.3 480" xml:space="preserve">
<g>
	<path fill="#FFFFFF" stroke="#000000" stroke-miterlimit="10" d="M227.8,0.3C303.1,160.9,380,319.9,454.3,480
		c-57.5-67.4-113.8-135.6-171.4-203.3c-2.7,5-5.3,9.6-7.8,14.3c-10.3,19.2-20.5,38.5-30.9,57.7c-1.3,2.3-1,3,1.9,3.8
		c26.7,7.5,43.1,23.7,48.2,48.6c7.9,39-28.2,74.5-71.8,71c-31.5-2.5-55.9-22.2-61.5-49.8c-6.3-31.2,14.5-61.4,48.2-69.8
		c3-0.8,3-1.5,1.8-3.7c-12.6-23.3-25.1-46.7-37.6-70c-0.3-0.6-0.4-1.3-1.5-1.7c-5.2,6.2-10.4,12.4-15.7,18.6
		c-29.2,34.6-58.5,69.1-87.4,103.9c-17.9,21.7-36.2,43.2-54.3,64.8c-4.1,4.9-8.6,9.6-12.7,14.5c-0.4,0.5-1,1.4-1.7,1
		c-1.3-0.7,0.2-1.2,0.4-1.8c2.5-5.4,4.8-10.8,7.6-16.1c9.6-18.3,18.2-37.1,26.9-55.7c13.8-29.7,28-59.3,42-89
		c31.6-66.6,63.3-133,94.9-199.6c6.9-14.5,14-29,20.7-43.7c10.8-23.7,22.4-47.2,33.5-70.8C226.7,2.5,227,1.9,227.8,0.3z
		 M428.3,437.3c-0.2-0.3-0.2-0.7-0.7-0.4c-0.4,0.3,0,0.6,0.2,0.8c0.3,0.3,0.5,0.5,0.8,0.8C429,438,428.7,437.7,428.3,437.3z
		 M27,436.8c2,0.2,2.4-1.1,3.1-2c9.3-11.6,18.8-23,27.9-34.7c7.4-9.6,15.3-19,22.9-28.4c30.4-37.6,60.9-75.1,91.3-112.7
		c0.9-1.1,1.6-3.5,3.3-0.3c16.8,31.6,33.6,63.1,50.5,94.6c1,1.9,1.5,2.8-1.7,2.9c-32.3,1.1-55.7,28.6-49,57.3
		c5.9,25.3,31.5,41,60.6,37.3c25.1-3.2,43.7-21.4,45.2-44.1c1.5-23.1-14.7-43.3-39.4-49.1c-4.4-1-8.9-1.4-13.6-1.6
		c0.3-0.6,0.4-1.1,0.6-1.5c17.1-32,34.2-63.9,51.2-95.9c1.3-2.4,1.9-1.3,3,0c39.1,48.6,78.9,96.7,117.6,145.7
		c8.1,10.3,16.4,20.3,24.7,30.5c0.6,0.7,0.9,1.8,3,1.7C361.4,295.6,294.6,155,227.7,13.9C160.6,155.2,93.9,295.9,27,436.8z"/>
	<path d="M27,436.8c66.9-141,133.7-281.7,200.7-422.9c67,141.1,133.7,281.7,200.5,422.6c-2.1,0.1-2.4-1-3-1.7
		c-8.3-10.1-16.6-20.2-24.7-30.5c-38.6-48.9-78.5-97-117.6-145.7c-1.1-1.3-1.7-2.5-3,0c-17,32-34.2,63.9-51.2,95.9
		c-0.2,0.4-0.4,0.9-0.6,1.5c4.7,0.3,9.2,0.6,13.6,1.6c24.7,5.8,40.9,26,39.4,49.1c-1.5,22.8-20.1,40.9-45.2,44.1
		c-29.1,3.7-54.7-12.1-60.6-37.3c-6.7-28.7,16.7-56.1,49-57.3c3.2-0.1,2.7-1,1.7-2.9c-16.9-31.5-33.7-63-50.5-94.6
		c-1.7-3.2-2.4-0.9-3.3,0.3c-30.5,37.6-60.9,75.1-91.3,112.7c-7.7,9.5-15.6,18.8-22.9,28.4c-9,11.8-18.6,23.1-27.9,34.7
		C29.4,435.7,29,437,27,436.8z"/>
	<path d="M428.3,437.3c0.4,0.3,0.7,0.7,0.2,1.2c-0.3-0.3-0.5-0.5-0.8-0.8C428,437.6,428.1,437.5,428.3,437.3z"/>
	<path d="M427.8,437.8c-0.1-0.3-0.6-0.6-0.2-0.8c0.5-0.3,0.6,0.2,0.7,0.4C428.1,437.5,428,437.6,427.8,437.8z"/>
</g>
</svg>
