<?xml version="1.0" standalone="no"?>
<!DOCTYPE svg PUBLIC "-//W3C//DTD SVG 20010904//EN"
 "http://www.w3.org/TR/2001/REC-SVG-20010904/DTD/svg10.dtd">
<svg version="1.0" xmlns="http://www.w3.org/2000/svg"
 width="960.000000pt" height="958.000000pt" viewBox="0 0 960.000000 958.000000"
 preserveAspectRatio="xMidYMid meet">
<metadata>
Created by potrace 1.16, written by Peter Selinger 2001-2019
</metadata>
<g transform="translate(0.000000,958.000000) scale(0.100000,-0.100000)"
fill="#fff" stroke="none">
<path d="M0 4790 l0 -4790 4800 0 4800 0 0 4790 0 4790 -4800 0 -4800 0 0
-4790z m4872 3928 c112 -258 355 -823 481 -1123 42 -99 178 -416 303 -705 124
-289 286 -664 359 -835 147 -343 737 -1714 960 -2230 377 -874 764 -1774 815
-1900 55 -133 199 -470 457 -1068 63 -147 114 -270 112 -272 -3 -2 -78 94
-169 213 -91 119 -224 293 -295 386 -356 465 -585 767 -585 772 0 3 -116 157
-257 342 -142 185 -321 420 -398 522 -78 102 -321 421 -541 710 -220 289 -416
546 -435 572 -19 26 -38 46 -43 44 -4 -1 -77 -143 -161 -316 -84 -173 -223
-460 -309 -637 -86 -178 -157 -327 -158 -333 -2 -6 36 -24 83 -39 627 -204
920 -917 619 -1505 -196 -383 -621 -612 -1051 -567 -386 41 -697 256 -861 598
-75 156 -101 267 -102 443 -1 161 11 238 56 370 108 310 355 552 674 659 47
16 87 31 90 33 2 3 -52 119 -120 259 -305 625 -496 1022 -496 1030 0 19 -18 8
-47 -28 -16 -21 -109 -143 -207 -272 -98 -128 -278 -364 -400 -525 -740 -969
-984 -1291 -1063 -1400 -17 -25 -141 -188 -274 -363 -134 -175 -308 -403 -387
-508 -80 -104 -154 -199 -166 -210 -12 -11 -61 -73 -110 -138 -49 -64 -91
-116 -92 -114 -5 4 188 452 213 497 11 19 103 229 203 465 239 561 757 1770
1005 2345 109 250 257 595 330 765 73 171 233 542 355 825 122 283 275 639
340 790 65 151 217 505 338 785 121 281 238 555 262 610 200 477 554 1295 560
1295 3 0 53 -109 112 -242z"/>
<path d="M4545 8243 c-114 -269 -768 -1791 -1452 -3383 -1484 -3455 -1513
-3522 -1513 -3534 0 -10 186 240 363 486 160 224 1620 2219 1897 2593 40 53
76 93 80 88 4 -4 71 -138 148 -298 77 -159 262 -542 411 -849 149 -307 271
-562 271 -565 0 -4 -44 -12 -97 -18 -207 -25 -370 -108 -515 -261 -84 -89
-138 -181 -179 -302 -28 -83 -33 -112 -37 -230 -3 -114 -1 -149 17 -225 91
-382 418 -635 820 -635 343 0 617 168 761 465 67 138 84 212 83 365 -1 140
-21 238 -73 347 -127 272 -390 455 -691 480 -38 3 -69 7 -69 9 0 4 194 407
517 1074 302 623 316 650 323 650 3 -1 129 -170 280 -377 151 -206 350 -477
441 -602 317 -433 1140 -1558 1376 -1883 131 -179 239 -325 241 -324 1 2 -32
81 -73 177 -42 96 -103 239 -137 319 -99 237 -478 1121 -1188 2770 -188 437
-425 986 -525 1220 -101 234 -330 767 -510 1185 -180 418 -333 776 -340 795
-11 32 -365 857 -396 923 -7 15 -15 27 -19 27 -3 0 -100 -219 -215 -487z"/>
</g>
</svg>
