<?xml version="1.0" encoding="UTF-8" standalone="no"?>
<svg
   xmlns:dc="http://purl.org/dc/elements/1.1/"
   xmlns:cc="http://creativecommons.org/ns#"
   xmlns:rdf="http://www.w3.org/1999/02/22-rdf-syntax-ns#"
   xmlns:svg="http://www.w3.org/2000/svg"
   xmlns="http://www.w3.org/2000/svg"
   id="svg8"
   version="1.1"
   viewBox="0 0 15 15"
   height="297mm"
   width="210mm">
  <defs
     id="defs2" />
  <metadata
     id="metadata5">
    <rdf:RDF>
      <cc:Work
         rdf:about="">
        <dc:format>image/svg+xml</dc:format>
        <dc:type
           rdf:resource="http://purl.org/dc/dcmitype/StillImage" />
        <dc:title></dc:title>
      </cc:Work>
    </rdf:RDF>
  </metadata>
  <g
     id="layer1">
    <g
       style="fill:#000000;stroke:none"
       transform="matrix(0.01889881,0,0,-0.01889881,0.22677982,181.2133)"
       id="g4541">
      <path
         style="fill:none"
         d="M 0,4790 V 0 H 4800 9600 V 4790 9580 H 4800 0 Z m 4872,3928 c 112,-258 355,-823 481,-1123 42,-99 178,-416 303,-705 124,-289 286,-664 359,-835 147,-343 737,-1714 960,-2230 377,-874 764,-1774 815,-1900 55,-133 199,-470 457,-1068 63,-147 114,-270 112,-272 -3,-2 -78,94 -169,213 -91,119 -224,293 -295,386 -356,465 -585,767 -585,772 0,3 -116,157 -257,342 -142,185 -321,420 -398,522 -78,102 -321,421 -541,710 -220,289 -416,546 -435,572 -19,26 -38,46 -43,44 -4,-1 -77,-143 -161,-316 -84,-173 -223,-460 -309,-637 -86,-178 -157,-327 -158,-333 -2,-6 36,-24 83,-39 627,-204 920,-917 619,-1505 -196,-383 -621,-612 -1051,-567 -386,41 -697,256 -861,598 -75,156 -101,267 -102,443 -1,161 11,238 56,370 108,310 355,552 674,659 47,16 87,31 90,33 2,3 -52,119 -120,259 -305,625 -496,1022 -496,1030 0,19 -18,8 -47,-28 -16,-21 -109,-143 -207,-272 -98,-128 -278,-364 -400,-525 -740,-969 -984,-1291 -1063,-1400 -17,-25 -141,-188 -274,-363 -134,-175 -308,-403 -387,-508 -80,-104 -154,-199 -166,-210 -12,-11 -61,-73 -110,-138 -49,-64 -91,-116 -92,-114 -5,4 188,452 213,497 11,19 103,229 203,465 239,561 757,1770 1005,2345 109,250 257,595 330,765 73,171 233,542 355,825 122,283 275,639 340,790 65,151 217,505 338,785 121,281 238,555 262,610 200,477 554,1295 560,1295 3,0 53,-109 112,-242 z"
         id="path4537" />
      <path
         style="fill:#fff;fill-opacity:1"
         d="M 2973,9099 C 2859,8830 2205,7308 1521,5716 36.999993,2261 7.9999937,2194 7.9999937,2182 c 0,-10 185.9999963,240 362.9999963,486 C 530.99999,2892 1991,4887 2268,5261 c 40,53 76,93 80,88 4,-4 71,-138 148,-298 77,-159 262,-542 411,-849 149,-307 271,-562 271,-565 0,-4 -44,-12 -97,-18 -207,-25 -370,-108 -515,-261 -84,-89 -138,-181 -179,-302 -28,-83 -33,-112 -37,-230 -3,-114 -1,-149 17,-225 91,-382 418,-635 820,-635 343,0 617,168 761,465 67,138 84,212 83,365 -1,140 -21,238 -73,347 -127,272 -390,455 -691,480 -38,3 -69,7 -69,9 0,4 194,407 517,1074 302,623 316,650 323,650 3,-1 129,-170 280,-377 151,-206 350,-477 441,-602 317,-433 1140,-1558 1376,-1883 131,-179 239,-325 241,-324 1,2 -32,81 -73,177 -42,96 -103,239 -137,319 -99,237 -478,1121 -1188,2770 -188,437 -425,986 -525,1220 -101,234 -330,767 -510,1185 -180,418 -333,776 -340,795 -11,32 -365,857 -396,923 -7,15 -15,27 -19,27 -3,0 -100,-219 -215,-487 z"
         id="path4539" />
    </g>
  </g>
</svg>
